<svg width="88" height="88" viewBox="0 0 88 88" fill="none" xmlns="http://www.w3.org/2000/svg">
<path d="M77.5906 71.9062C82.0785 66.5066 85.1999 60.1054 86.6906 53.2443C88.1814 46.3832 87.9978 39.2639 86.1552 32.4888C84.3127 25.7137 80.8654 19.482 76.1051 14.3209C71.3448 9.15977 65.4115 5.22111 58.8071 2.83808C52.2026 0.455048 45.1214 -0.302249 38.1624 0.630251C31.2033 1.56275 24.5713 4.15761 18.8272 8.19533C13.0831 12.233 8.39606 17.5948 5.16245 23.8271C1.92884 30.0594 0.243836 36.9788 0.249986 44C0.252346 54.2068 3.84919 64.0868 10.4094 71.9062L10.3469 71.9594C10.5656 72.2219 10.8156 72.4469 11.0406 72.7062C11.3219 73.0281 11.625 73.3312 11.9156 73.6437C12.7906 74.5937 13.6906 75.5062 14.6344 76.3625C14.9219 76.625 15.2187 76.8687 15.5094 77.1187C16.5094 77.9812 17.5375 78.8 18.6031 79.5625C18.7406 79.6562 18.8656 79.7781 19.0031 79.875V79.8375C26.3222 84.988 35.0534 87.7522 44.0031 87.7522C52.9528 87.7522 61.684 84.988 69.0031 79.8375V79.875C69.1406 79.7781 69.2625 79.6562 69.4031 79.5625C70.4656 78.7969 71.4969 77.9812 72.4969 77.1187C72.7875 76.8687 73.0844 76.6219 73.3719 76.3625C74.3156 75.5031 75.2156 74.5937 76.0906 73.6437C76.3812 73.3312 76.6812 73.0281 76.9656 72.7062C77.1875 72.4469 77.4406 72.2219 77.6594 71.9562L77.5906 71.9062ZM44 19C46.7813 19 49.5001 19.8248 51.8127 21.37C54.1253 22.9152 55.9277 25.1114 56.992 27.681C58.0564 30.2506 58.3349 33.0781 57.7923 35.806C57.2497 38.5338 55.9104 41.0395 53.9437 43.0062C51.977 44.9729 49.4713 46.3122 46.7434 46.8548C44.0156 47.3974 41.1881 47.1189 38.6185 46.0546C36.0489 44.9902 33.8527 43.1878 32.3074 40.8752C30.7622 38.5626 29.9375 35.8438 29.9375 33.0625C29.9375 29.3329 31.4191 25.756 34.0563 23.1188C36.6935 20.4816 40.2704 19 44 19ZM19.0219 71.9062C19.0761 67.803 20.7436 63.8861 23.6636 61.0029C26.5836 58.1197 30.5214 56.5021 34.625 56.5H53.375C57.4786 56.5021 61.4163 58.1197 64.3364 61.0029C67.2564 63.8861 68.9239 67.803 68.9781 71.9062C62.1245 78.0823 53.2258 81.5002 44 81.5002C34.7742 81.5002 25.8755 78.0823 19.0219 71.9062Z" fill="#7B7E81"/>
</svg>
